<svg width="570" height="375" viewBox="0 0 570 375" fill="none" xmlns="http://www.w3.org/2000/svg">
<rect x="435.092" y="240" width="134.908" height="134.908" fill="#00476D"/>
<g clip-path="url(#clip0_71_4)">
<path d="M545.426 318.648H458.131V295.33H545.426V318.648ZM458.728 318.05H544.882V295.928H458.728V318.05Z" fill="white"/>
<path d="M462.153 299.08H474.709V300.711L464.599 313.104H474.926V314.898H461.881V313.267L471.991 300.874H462.153V299.08Z" fill="white"/>
<path d="M482.21 299.08H484.656L490.744 314.898H488.515L487.048 310.821H479.873L478.405 314.898H476.122L482.21 299.08ZM483.406 301.2L480.471 309.082H486.341L483.406 301.2Z" fill="white"/>
<path d="M493.027 299.08H498.571C500.202 299.08 501.506 299.406 502.376 300.059C503.246 300.765 503.789 301.852 503.681 302.939C503.735 303.755 503.463 304.57 502.974 305.222C502.485 305.82 501.724 306.201 500.963 306.309C501.941 306.473 502.811 306.962 503.463 307.723C504.061 308.484 504.387 309.462 504.333 310.386C504.387 311.636 503.844 312.832 502.865 313.648C501.887 314.408 500.528 314.789 498.734 314.789H493.027V299.08ZM495.201 300.874V305.657H498.408C499.441 305.657 500.256 305.44 500.745 305.059C501.289 304.624 501.561 303.972 501.506 303.266C501.561 302.559 501.289 301.907 500.745 301.472C500.256 301.091 499.441 300.874 498.408 300.874H495.201ZM495.201 307.342V313.104H498.68C499.821 313.104 500.691 312.887 501.289 312.397C501.832 311.908 502.104 311.201 502.104 310.223C502.104 309.245 501.832 308.538 501.289 308.049C500.745 307.56 499.876 307.342 498.68 307.342H495.201Z" fill="white"/>
<path d="M507.812 299.08H513.356C514.986 299.08 516.237 299.406 517.161 300.059C518.03 300.765 518.574 301.852 518.52 302.939C518.574 303.755 518.302 304.57 517.813 305.222C517.324 305.82 516.617 306.201 515.802 306.309C516.78 306.473 517.65 306.962 518.302 307.723C518.9 308.484 519.226 309.462 519.172 310.386C519.226 311.636 518.683 312.832 517.704 313.648C516.726 314.408 515.367 314.789 513.519 314.789H507.812V299.08ZM509.986 300.874V305.657H513.193C514.225 305.657 515.041 305.44 515.53 305.059C516.074 304.624 516.345 303.972 516.291 303.266C516.345 302.559 516.074 301.907 515.53 301.472C515.041 301.091 514.225 300.874 513.193 300.874H509.986ZM509.986 307.342V313.104H513.465C514.606 313.104 515.476 312.887 516.074 312.397C516.617 311.908 516.889 311.201 516.889 310.223C516.889 309.245 516.617 308.538 516.074 308.049C515.53 307.56 514.66 307.342 513.465 307.342H509.986Z" fill="white"/>
<path d="M528.902 299.08H531.239L534.989 304.733L538.794 299.08H541.077L536.131 306.473L541.675 314.898H539.338L534.935 308.266L530.532 314.898H528.249L533.794 306.527L528.902 299.08Z" fill="white"/>
<path d="M524.771 299.08H522.596V314.898H524.771V299.08Z" fill="white"/>
</g>
<rect x="290.481" y="240" width="134.908" height="134.908" fill="#D40000"/>
<g clip-path="url(#clip1_71_4)">
<path d="M400.814 318.648H313.519V295.33H400.814V318.648ZM314.117 318.05H400.271V295.928H314.117V318.05Z" fill="white"/>
<path d="M317.541 299.08H330.097V300.711L319.987 313.104H330.315V314.898H317.27V313.267L327.38 300.874H317.541V299.08Z" fill="white"/>
<path d="M337.599 299.08H340.045L346.132 314.898H343.904L342.436 310.821H335.261L333.794 314.898H331.511L337.599 299.08ZM338.794 301.2L335.859 309.082H341.73L338.794 301.2Z" fill="white"/>
<path d="M348.415 299.08H353.96C355.59 299.08 356.895 299.406 357.764 300.059C358.634 300.765 359.178 301.852 359.069 302.939C359.123 303.755 358.852 304.57 358.362 305.222C357.873 305.82 357.112 306.201 356.351 306.309C357.33 306.473 358.199 306.962 358.852 307.723C359.449 308.484 359.776 309.462 359.721 310.386C359.776 311.636 359.232 312.832 358.254 313.648C357.275 314.408 355.916 314.789 354.123 314.789H348.415V299.08ZM350.59 300.874V305.657H353.796C354.829 305.657 355.645 305.44 356.134 305.059C356.677 304.624 356.949 303.972 356.895 303.266C356.949 302.559 356.677 301.907 356.134 301.472C355.645 301.091 354.829 300.874 353.796 300.874H350.59ZM350.59 307.342V313.104H354.068C355.21 313.104 356.079 312.887 356.677 312.397C357.221 311.908 357.493 311.201 357.493 310.223C357.493 309.245 357.221 308.538 356.677 308.049C356.134 307.56 355.264 307.342 354.068 307.342H350.59Z" fill="white"/>
<path d="M363.2 299.08H368.744C370.375 299.08 371.625 299.406 372.549 300.059C373.419 300.765 373.962 301.852 373.908 302.939C373.962 303.755 373.691 304.57 373.201 305.222C372.712 305.82 372.006 306.201 371.19 306.309C372.169 306.473 373.038 306.962 373.691 307.723C374.289 308.484 374.615 309.462 374.56 310.386C374.615 311.636 374.071 312.832 373.093 313.648C372.114 314.408 370.755 314.789 368.907 314.789H363.2V299.08ZM365.374 300.874V305.657H368.581C369.614 305.657 370.429 305.44 370.919 305.059C371.462 304.624 371.734 303.972 371.679 303.266C371.734 302.559 371.462 301.907 370.919 301.472C370.429 301.091 369.614 300.874 368.581 300.874H365.374ZM365.374 307.342V313.104H368.853C369.994 313.104 370.864 312.887 371.462 312.397C372.006 311.908 372.277 311.201 372.277 310.223C372.277 309.245 372.006 308.538 371.462 308.049C370.919 307.56 370.049 307.342 368.853 307.342H365.374Z" fill="white"/>
<path d="M384.29 299.08H386.627L390.378 304.733L394.183 299.08H396.466L391.519 306.473L397.064 314.898H394.726L390.323 308.266L385.921 314.898H383.638L389.182 306.527L384.29 299.08Z" fill="white"/>
<path d="M380.159 299.08H377.985V314.898H380.159V299.08Z" fill="white"/>
</g>
<rect x="145.466" y="240" width="134.908" height="134.908" fill="black"/>
<g clip-path="url(#clip2_71_4)">
<path d="M255.799 318.648H168.504V295.33H255.799V318.648ZM169.102 318.05H255.256V295.928H169.102V318.05Z" fill="white"/>
<path d="M172.526 299.08H185.082V300.711L174.972 313.104H185.3V314.898H172.255V313.267L182.365 300.874H172.526V299.08Z" fill="white"/>
<path d="M192.583 299.08H195.029L201.117 314.898H198.889L197.421 310.821H190.246L188.779 314.898H186.496L192.583 299.08ZM193.779 301.2L190.844 309.082H196.715L193.779 301.2Z" fill="white"/>
<path d="M203.4 299.08H208.945C210.575 299.08 211.88 299.406 212.749 300.059C213.619 300.765 214.163 301.852 214.054 302.939C214.108 303.755 213.837 304.57 213.347 305.222C212.858 305.82 212.097 306.201 211.336 306.309C212.315 306.473 213.184 306.962 213.837 307.723C214.434 308.484 214.761 309.462 214.706 310.386C214.761 311.636 214.217 312.832 213.239 313.648C212.26 314.408 210.901 314.789 209.108 314.789H203.4V299.08ZM205.574 300.874V305.657H208.781C209.814 305.657 210.63 305.44 211.119 305.059C211.662 304.624 211.934 303.972 211.88 303.266C211.934 302.559 211.662 301.907 211.119 301.472C210.63 301.091 209.814 300.874 208.781 300.874H205.574ZM205.574 307.342V313.104H209.053C210.195 313.104 211.064 312.887 211.662 312.397C212.206 311.908 212.478 311.201 212.478 310.223C212.478 309.245 212.206 308.538 211.662 308.049C211.119 307.56 210.249 307.342 209.053 307.342H205.574Z" fill="white"/>
<path d="M218.185 299.08H223.729C225.36 299.08 226.61 299.406 227.534 300.059C228.404 300.765 228.947 301.852 228.893 302.939C228.947 303.755 228.676 304.57 228.186 305.222C227.697 305.82 226.991 306.201 226.175 306.309C227.154 306.473 228.023 306.962 228.676 307.723C229.274 308.484 229.6 309.462 229.545 310.386C229.6 311.636 229.056 312.832 228.078 313.648C227.099 314.408 225.74 314.789 223.892 314.789H218.185V299.08ZM220.359 300.874V305.657H223.566C224.599 305.657 225.414 305.44 225.903 305.059C226.447 304.624 226.719 303.972 226.664 303.266C226.719 302.559 226.447 301.907 225.903 301.472C225.414 301.091 224.599 300.874 223.566 300.874H220.359ZM220.359 307.342V313.104H223.838C224.979 313.104 225.849 312.887 226.447 312.397C226.991 311.908 227.262 311.201 227.262 310.223C227.262 309.245 226.991 308.538 226.447 308.049C225.903 307.56 225.034 307.342 223.838 307.342H220.359Z" fill="white"/>
<path d="M239.275 299.08H241.612L245.363 304.733L249.168 299.08H251.451L246.504 306.473L252.049 314.898H249.711L245.308 308.266L240.906 314.898H238.623L244.167 306.527L239.275 299.08Z" fill="white"/>
<path d="M235.144 299.08H232.97V314.898H235.144V299.08Z" fill="white"/>
</g>
<rect x="0.5" y="240.5" width="133.908" height="133.908" fill="white" stroke="#E5E5E5"/>
<g clip-path="url(#clip3_71_4)">
<rect x="-132.193" y="286.046" width="1512" height="55" fill="white"/>
<mask id="mask0_71_4" style="mask-type:luminance" maskUnits="userSpaceOnUse" x="23" y="296" width="89" height="23">
<path d="M111.1 296.083H23.8073V318.824H111.1V296.083Z" fill="white"/>
</mask>
<g mask="url(#mask0_71_4)">
<mask id="mask1_71_4" style="mask-type:luminance" maskUnits="userSpaceOnUse" x="23" y="296" width="89" height="23">
<path d="M111.1 296.046H23.8073V318.861H111.1V296.046Z" fill="white"/>
</mask>
<g mask="url(#mask1_71_4)">
<path d="M111.1 296.083H23.8073V318.824H111.1V296.083Z" fill="black"/>
</g>
</g>
<path d="M27.5506 299.544H40.178V301.2L29.9939 313.551H40.432V315.363H27.2891V313.708L37.4732 301.357H27.5506V299.544Z" fill="white"/>
<path d="M47.7096 299.544H50.1529L56.2873 315.363H54.0532L52.5962 311.328H45.3186L43.8616 315.363H41.5753L47.7096 299.544ZM48.9574 301.662L45.9986 309.516H51.9237L48.9649 301.662H48.9574Z" fill="white"/>
<path d="M58.6185 299.544H64.1775C65.8437 299.544 67.084 299.902 68.0255 300.581C68.9072 301.252 69.3779 302.237 69.3779 303.475C69.3779 304.459 69.1687 305.235 68.7054 305.802C68.2347 306.369 67.5622 306.734 66.6806 306.891C67.7714 307.1 68.6008 307.562 69.1761 308.285C69.744 309.009 70.0578 309.889 70.0578 310.97C70.0578 312.365 69.5871 313.454 68.6008 314.23C67.6145 315.005 66.2621 315.363 64.4465 315.363H58.6259V299.544H58.6185ZM60.8002 301.304V306.063H64.0206C65.0592 306.063 65.8885 305.854 66.4116 305.496C66.9346 305.086 67.1886 304.511 67.1886 303.684C67.1886 302.908 66.9271 302.289 66.4116 301.871C65.8885 301.461 65.1115 301.304 64.0206 301.304H60.8002ZM60.8002 307.816V313.603H64.2821C65.4776 313.603 66.307 313.342 66.8823 312.88C67.4502 312.417 67.7117 311.694 67.7117 310.709C67.7117 309.725 67.4502 309.001 66.8823 308.539C66.3144 308.077 65.4253 307.816 64.2821 307.816H60.8002Z" fill="white"/>
<path d="M73.5322 299.544H79.0912C80.7574 299.544 81.9977 299.902 82.9392 300.581C83.8209 301.252 84.2916 302.237 84.2916 303.475C84.2916 304.459 84.0824 305.235 83.6191 305.802C83.1484 306.369 82.4759 306.734 81.5942 306.891C82.6851 307.1 83.5145 307.562 84.0898 308.285C84.6652 309.009 84.9715 309.889 84.9715 310.97C84.9715 312.365 84.5008 313.454 83.5145 314.23C82.5282 315.005 81.1758 315.363 79.3602 315.363H73.5396V299.544H73.5322ZM75.7139 301.304V306.063H78.9343C79.9729 306.063 80.8022 305.854 81.3253 305.496C81.8483 305.086 82.1023 304.511 82.1023 303.684C82.1023 302.908 81.8408 302.289 81.3253 301.871C80.8022 301.461 80.0252 301.304 78.9343 301.304H75.7139ZM75.7139 307.816V313.603H79.1958C80.339 313.603 81.2207 313.342 81.796 312.88C82.3638 312.417 82.6254 311.694 82.6254 310.709C82.6254 309.725 82.3638 309.001 81.796 308.539C81.2207 308.077 80.339 307.816 79.1958 307.816H75.7139Z" fill="white"/>
<path d="M94.6774 299.544H97.0684L100.864 305.235L104.705 299.544H106.991L102.007 306.935L107.619 315.363H105.228L100.812 308.748L96.3959 315.363H94.0573L99.6686 306.988L94.6774 299.544Z" fill="white"/>
<path d="M90.5754 299.544H88.3936V315.363H90.5754V299.544Z" fill="white"/>
</g>
<line x1="312" y1="196.5" x2="570" y2="196.5" stroke="black"/>
<path d="M1.98 203V189H3.58L8.68 196.64L13.78 189H15.38V203H13.8V191.66L8.7 199.16H8.62L3.52 191.68V203H1.98ZM25.8433 203.24C21.5833 203.24 18.7233 199.9 18.7233 196C18.7233 192.14 21.6233 188.76 25.8833 188.76C30.1433 188.76 33.0033 192.1 33.0033 196C33.0033 199.86 30.1033 203.24 25.8433 203.24ZM25.8833 201.78C29.0833 201.78 31.3633 199.22 31.3633 196C31.3633 192.82 29.0433 190.22 25.8433 190.22C22.6433 190.22 20.3633 192.78 20.3633 196C20.3633 199.18 22.6833 201.78 25.8833 201.78ZM36.3355 203V189H37.8155L46.6355 200.22V189H48.1755V203H46.9155L37.8755 191.52V203H36.3355ZM58.6363 203.24C54.3763 203.24 51.5163 199.9 51.5163 196C51.5163 192.14 54.4163 188.76 58.6763 188.76C62.9363 188.76 65.7963 192.1 65.7963 196C65.7963 199.86 62.8963 203.24 58.6363 203.24ZM58.6763 201.78C61.8763 201.78 64.1563 199.22 64.1563 196C64.1563 192.82 61.8363 190.22 58.6363 190.22C55.4362 190.22 53.1563 192.78 53.1563 196C53.1563 199.18 55.4763 201.78 58.6763 201.78ZM75.5284 203.24C71.4884 203.24 68.5084 200.06 68.5084 196C68.5084 192.04 71.4684 188.76 75.5884 188.76C78.1284 188.76 79.6084 189.7 81.0084 191.02L79.9684 192.14C78.7884 191.02 77.4684 190.22 75.5684 190.22C72.4684 190.22 70.1484 192.74 70.1484 196C70.1484 199.24 72.4884 201.78 75.5684 201.78C77.4884 201.78 78.7484 201.04 80.0884 199.76L81.1284 200.86C79.6684 202.34 78.0684 203.24 75.5284 203.24ZM83.8941 203V189H85.4741V195.22H93.5541V189H95.1341V203H93.5541V196.7H85.4741V203H83.8941ZM99.0894 203V189H105.109C106.829 189 108.209 189.52 109.089 190.4C109.769 191.08 110.169 192.06 110.169 193.2C110.169 195.52 108.569 196.88 106.369 197.28L110.669 203H108.729L104.669 197.56H100.669V203H99.0894ZM100.669 196.14H104.969C107.069 196.14 108.569 195.06 108.569 193.22C108.569 191.5 107.249 190.46 104.989 190.46H100.669V196.14ZM120.043 203.24C115.783 203.24 112.923 199.9 112.923 196C112.923 192.14 115.823 188.76 120.083 188.76C124.343 188.76 127.203 192.1 127.203 196C127.203 199.86 124.303 203.24 120.043 203.24ZM120.083 201.78C123.283 201.78 125.563 199.22 125.563 196C125.563 192.82 123.243 190.22 120.043 190.22C116.842 190.22 114.563 192.78 114.563 196C114.563 199.18 116.883 201.78 120.083 201.78ZM130.535 203V189H132.135L137.235 196.64L142.335 189H143.935V203H142.355V191.66L137.255 199.16H137.175L132.075 191.68V203H130.535ZM147.898 203V189H158.018V190.44H149.478V195.22H157.118V196.66H149.478V201.56H158.118V203H147.898ZM167.293 203V189H177.413V190.44H168.873V195.22H176.513V196.66H168.873V201.56H177.513V203H167.293ZM179.631 203L185.011 195.86L179.831 189H181.691L185.991 194.72L190.251 189H192.091L186.911 195.84L192.291 203H190.411L185.931 196.98L181.451 203H179.631ZM200.587 203.24C196.547 203.24 193.567 200.06 193.567 196C193.567 192.04 196.527 188.76 200.647 188.76C203.187 188.76 204.667 189.7 206.067 191.02L205.027 192.14C203.847 191.02 202.527 190.22 200.627 190.22C197.527 190.22 195.207 192.74 195.207 196C195.207 199.24 197.547 201.78 200.627 201.78C202.547 201.78 203.807 201.04 205.147 199.76L206.187 200.86C204.727 202.34 203.127 203.24 200.587 203.24ZM208.953 203V189H219.073V190.44H210.533V195.22H218.173V196.66H210.533V201.56H219.173V203H208.953ZM222.351 203V189H227.591C230.751 189 232.831 190.68 232.831 193.48C232.831 196.5 230.311 198.06 227.331 198.06H223.931V203H222.351ZM223.931 196.62H227.391C229.711 196.62 231.231 195.38 231.231 193.5C231.231 191.5 229.731 190.46 227.471 190.46H223.931V196.62ZM239.41 203V190.46H234.71V189H245.71V190.46H241.01V203H239.41ZM248.819 203V189H250.399V203H248.819ZM261 203.24C256.74 203.24 253.88 199.9 253.88 196C253.88 192.14 256.78 188.76 261.04 188.76C265.3 188.76 268.16 192.1 268.16 196C268.16 199.86 265.26 203.24 261 203.24ZM261.04 201.78C264.24 201.78 266.52 199.22 266.52 196C266.52 192.82 264.2 190.22 261 190.22C257.8 190.22 255.52 192.78 255.52 196C255.52 199.18 257.84 201.78 261.04 201.78ZM271.492 203V189H272.972L281.792 200.22V189H283.332V203H282.072L273.032 191.52V203H271.492ZM292.093 203.2C289.873 203.2 288.053 202.46 286.373 200.96L287.353 199.8C288.813 201.12 290.213 201.78 292.153 201.78C294.033 201.78 295.273 200.78 295.273 199.36C295.273 198.06 294.573 197.32 291.633 196.7C288.413 196 286.933 194.96 286.933 192.62C286.933 190.42 288.873 188.8 291.533 188.8C293.573 188.8 295.033 189.38 296.453 190.52L295.533 191.74C294.233 190.68 292.933 190.22 291.493 190.22C289.673 190.22 288.513 191.22 288.513 192.52C288.513 193.84 289.233 194.58 292.313 195.24C295.433 195.92 296.873 197.06 296.873 199.24C296.873 201.64 294.873 203.2 292.093 203.2Z" fill="#1E1E1E"/>
<g clip-path="url(#clip4_71_4)">
<rect x="-156" y="53" width="1512" height="55" fill="white"/>
<mask id="mask2_71_4" style="mask-type:luminance" maskUnits="userSpaceOnUse" x="0" y="63" width="268" height="72">
<path d="M267.25 63.1177H0V134.882H267.25V63.1177Z" fill="white"/>
</mask>
<g mask="url(#mask2_71_4)">
<mask id="mask3_71_4" style="mask-type:luminance" maskUnits="userSpaceOnUse" x="0" y="63" width="268" height="72">
<path d="M267.25 63H0V135H267.25V63Z" fill="white"/>
</mask>
<g mask="url(#mask3_71_4)">
<path d="M267.25 63.1177H0V134.882H267.25V63.1177Z" fill="#D40000"/>
</g>
</g>
<path d="M11.4604 74.0389H50.1194V79.2641L18.9406 118.242H50.8971V123.961H10.6598V118.736L41.8386 79.7584H11.4604V74.0389Z" fill="white"/>
<path d="M73.1775 74.0389H80.6577L99.4381 123.961H92.5985L88.1378 111.228H65.8575L61.3968 123.961H54.397L73.1775 74.0389ZM76.9976 80.7234L67.9391 105.508H86.0791L77.0205 80.7234H76.9976Z" fill="white"/>
<path d="M106.575 74.0389H123.594C128.695 74.0389 132.493 75.1687 135.375 77.3105C138.074 79.4289 139.515 82.5358 139.515 86.4429C139.515 89.5498 138.875 91.9977 137.457 93.7865C136.015 95.5753 133.957 96.7286 131.257 97.2229C134.597 97.882 137.136 99.3413 138.898 101.624C140.636 103.907 141.597 106.685 141.597 110.098C141.597 114.499 140.156 117.936 137.136 120.383C134.117 122.831 129.976 123.961 124.418 123.961H106.598V74.0389H106.575ZM113.255 79.5936V94.6103H123.114C126.293 94.6103 128.833 93.9513 130.434 92.8215C132.035 91.5269 132.813 89.7146 132.813 87.102C132.813 84.6541 132.012 82.7005 130.434 81.3825C128.833 80.0879 126.454 79.5936 123.114 79.5936H113.255ZM113.255 100.142V118.406H123.914C127.574 118.406 130.114 117.583 131.875 116.123C133.614 114.664 134.414 112.381 134.414 109.274C134.414 106.167 133.614 103.884 131.875 102.425C130.137 100.965 127.414 100.142 123.914 100.142H113.255Z" fill="white"/>
<path d="M152.234 74.0389H169.253C174.354 74.0389 178.151 75.1687 181.034 77.3105C183.733 79.4289 185.174 82.5358 185.174 86.4429C185.174 89.5498 184.534 91.9977 183.115 93.7865C181.674 95.5753 179.615 96.7286 176.916 97.2229C180.256 97.882 182.795 99.3413 184.556 101.624C186.318 103.907 187.256 106.685 187.256 110.098C187.256 114.499 185.815 117.936 182.795 120.383C179.776 122.831 175.635 123.961 170.076 123.961H152.257V74.0389H152.234ZM158.913 79.5936V94.6103H168.773C171.952 94.6103 174.491 93.9513 176.093 92.8215C177.694 91.5269 178.472 89.7146 178.472 87.102C178.472 84.6541 177.671 82.7005 176.093 81.3825C174.491 80.0879 172.112 79.5936 168.773 79.5936H158.913ZM158.913 100.142V118.406H169.573C173.073 118.406 175.772 117.583 177.534 116.123C179.272 114.664 180.073 112.381 180.073 109.274C180.073 106.167 179.272 103.884 177.534 102.425C175.772 100.965 173.073 100.142 169.573 100.142H158.913Z" fill="white"/>
<path d="M216.97 74.0389H224.291L235.911 91.9977L247.669 74.0389H254.669L239.411 97.3641L256.59 123.961H249.27L235.751 103.084L222.232 123.961H215.072L232.251 97.5289L216.97 74.0389Z" fill="white"/>
<path d="M204.412 74.0389H197.732V123.961H204.412V74.0389Z" fill="white"/>
</g>
<line x1="180" y1="11.5" x2="570" y2="11.5" stroke="black"/>
<path d="M1.98 18V4H7.22C10.38 4 12.46 5.68 12.46 8.48C12.46 11.5 9.94 13.06 6.96 13.06H3.56V18H1.98ZM3.56 11.62H7.02C9.34 11.62 10.86 10.38 10.86 8.5C10.86 6.5 9.36 5.46 7.1 5.46H3.56V11.62ZM15.3394 18V4H21.3594C23.0794 4 24.4594 4.52 25.3394 5.4C26.0194 6.08 26.4194 7.06 26.4194 8.2C26.4194 10.52 24.8194 11.88 22.6194 12.28L26.9194 18H24.9794L20.9194 12.56H16.9194V18H15.3394ZM16.9194 11.14H21.2194C23.3194 11.14 24.8194 10.06 24.8194 8.22C24.8194 6.5 23.4994 5.46 21.2394 5.46H16.9194V11.14ZM29.9325 18V4H31.5125V18H29.9325ZM35.6128 18V4H37.2128L42.3128 11.64L47.4128 4H49.0128V18H47.4328V6.66L42.3328 14.16H42.2528L37.1528 6.68V18H35.6128ZM51.7761 18L58.1561 3.9H59.6361L66.0161 18H64.3161L62.6761 14.3H55.0561L53.3961 18H51.7761ZM55.6761 12.88H62.0561L58.8761 5.74L55.6761 12.88ZM68.7769 18V4H74.7969C76.5169 4 77.8969 4.52 78.7769 5.4C79.4569 6.08 79.8569 7.06 79.8569 8.2C79.8569 10.52 78.2569 11.88 76.0569 12.28L80.3569 18H78.4169L74.3569 12.56H70.3569V18H68.7769ZM70.3569 11.14H74.6569C76.7569 11.14 78.2569 10.06 78.2569 8.22C78.2569 6.5 76.9369 5.46 74.6769 5.46H70.3569V11.14ZM87.1022 18V12.46L81.2822 4H83.2022L87.9222 11L92.6822 4H94.5222L88.7022 12.44V18H87.1022ZM103.035 18V4H104.615V16.54H112.495V18H103.035ZM121.117 18.24C116.857 18.24 113.997 14.9 113.997 11C113.997 7.14 116.897 3.76 121.157 3.76C125.417 3.76 128.277 7.1 128.277 11C128.277 14.86 125.377 18.24 121.117 18.24ZM121.157 16.78C124.357 16.78 126.637 14.22 126.637 11C126.637 7.82 124.317 5.22 121.117 5.22C117.917 5.22 115.637 7.78 115.637 11C115.637 14.18 117.957 16.78 121.157 16.78ZM138.109 18.24C133.709 18.24 130.989 15.04 130.989 11C130.989 7.16 133.809 3.76 138.009 3.76C140.369 3.76 141.829 4.44 143.229 5.62L142.209 6.82C141.129 5.88 139.929 5.22 137.949 5.22C134.849 5.22 132.629 7.84 132.629 11C132.629 14.34 134.769 16.82 138.169 16.82C139.769 16.82 141.249 16.2 142.209 15.42V11.94H137.949V10.52H143.729V16.1C142.429 17.26 140.469 18.24 138.109 18.24ZM153.793 18.24C149.533 18.24 146.673 14.9 146.673 11C146.673 7.14 149.573 3.76 153.833 3.76C158.093 3.76 160.953 7.1 160.953 11C160.953 14.86 158.053 18.24 153.793 18.24ZM153.833 16.78C157.033 16.78 159.313 14.22 159.313 11C159.313 7.82 156.993 5.22 153.793 5.22C150.592 5.22 148.313 7.78 148.313 11C148.313 14.18 150.633 16.78 153.833 16.78Z" fill="#1E1E1E"/>
<defs>
<clipPath id="clip0_71_4">
<rect width="87.2951" height="23.3186" fill="white" transform="translate(458.131 295.33)"/>
</clipPath>
<clipPath id="clip1_71_4">
<rect width="87.2951" height="23.3186" fill="white" transform="translate(313.519 295.33)"/>
</clipPath>
<clipPath id="clip2_71_4">
<rect width="87.2951" height="23.3186" fill="white" transform="translate(168.504 295.33)"/>
</clipPath>
<clipPath id="clip3_71_4">
<rect width="87.2932" height="22.8153" fill="white" transform="translate(23.8073 296.046)"/>
</clipPath>
<clipPath id="clip4_71_4">
<rect width="267.25" height="72" fill="white" transform="translate(0 63)"/>
</clipPath>
</defs>
</svg>
